# xmcd
#
# Track frame offsets:
#	150
#	13662
#	28835
#	43690
#	72762
#	87840
#	101450
#	114717
#	128527
#	141802
#	156057
#	167087
#	184302
#	196777
#	210120
#	224880
#	236850
#	249947
#	264532
#	276760
#	287360
#	298692
#	311205
#	326285
#
# Disc length: 4486 seconds
#
# Revision: 0
# Processed by: cddbd v1.4PL0 Copyright (c) Steve Scherf et al.
# Submitted via: dBpowerAMP V4.0
#
DISCID=5f118418
DTITLE=CD3 - les chemins de Saint Germain-des-Prés
DYEAR=2001
DGENRE=Chanson
TTITLE0=mon ami m'a donné  les frères Jacques
TTITLE1=rose blanche  les frères Jacques
TTITLE2=l'entrecôte  les frères Jacques
TTITLE3=son nombril  les frères Jacques
TTITLE4=ballade des places de Paris  les frères Jacques
TTITLE5=noms de rue  Cora Vaucaire
TTITLE6=Frédé  Cora Vaucaire
TTITLE7=ne joue pas avec mon coeur  Cora Vaucaire
TTITLE8=le prisonnier de la tour  Cora Vaucaire
TTITLE9=l'inventaire  les frères Jacques
TTITLE10=et la fête continue  les frères Jacques
TTITLE11=Barbara  les frères Jacques
TTITLE12=chanson des enfants d'Aubervillers  Claire Leclerc
TTITLE13=à Paris  Francis Lemarque
TTITLE14=papa, maman, la bonne et moi  Robert Lamoureux
TTITLE15=c'est nous qui sommes les pieds nickelés  les frères Jacques
TTITLE16=la fanfare tyrolienne  les frères Jacques
TTITLE17=moi j'tricote  Odette Laure
TTITLE18=ma mie  Odette Laure
TTITLE19=j'ai l'air d'un plaisantin  Robert LAmoureux
TTITLE20=la chanson du scaphandrier  Léo Ferré
TTITLE21=la vie d'artiste  Léo Ferré
TTITLE22=l'île Saint Louis  Léo Ferré
TTITLE23=le flamenco de Paris  Léo Ferré
EXTD=
EXTT0=
EXTT1=
EXTT2=
EXTT3=
EXTT4=
EXTT5=
EXTT6=
EXTT7=
EXTT8=
EXTT9=
EXTT10=
EXTT11=
EXTT12=
EXTT13=
EXTT14=
EXTT15=
EXTT16=
EXTT17=
EXTT18=
EXTT19=
EXTT20=
EXTT21=
EXTT22=
EXTT23=
PLAYORDER=
